<mxfile host="65bd71144e">
    <diagram id="-i_gcgUEiL3aIlroKkKF" name="Page-1">
        <mxGraphModel dx="1155" dy="668" grid="1" gridSize="10" guides="1" tooltips="1" connect="1" arrows="1" fold="1" page="1" pageScale="1" pageWidth="827" pageHeight="1169" math="0" shadow="0">
            <root>
                <mxCell id="0"/>
                <mxCell id="1" parent="0"/>
                <mxCell id="267" value="&lt;span id=&quot;docs-internal-guid-1aef4bfb-7fff-c312-14d9-f56bea1e8512&quot; style=&quot;font-weight:normal;&quot;&gt;&lt;span style=&quot;font-size: 11pt; font-family: Arial, sans-serif; background-color: transparent; font-variant-numeric: normal; font-variant-east-asian: normal; font-variant-alternates: normal; vertical-align: baseline;&quot;&gt;Node has no right subtree&lt;/span&gt;&lt;/span&gt;" style="swimlane;whiteSpace=wrap;html=1;" vertex="1" parent="1">
                    <mxGeometry x="20" y="1760" width="320" height="260" as="geometry"/>
                </mxCell>
                <mxCell id="268" value="1" style="ellipse;whiteSpace=wrap;html=1;aspect=fixed;" vertex="1" parent="267">
                    <mxGeometry x="20" y="120" width="40" height="40" as="geometry"/>
                </mxCell>
                <mxCell id="272" style="edgeStyle=none;html=1;exitX=0;exitY=1;exitDx=0;exitDy=0;entryX=0.5;entryY=0;entryDx=0;entryDy=0;" edge="1" parent="267" source="271" target="268">
                    <mxGeometry relative="1" as="geometry"/>
                </mxCell>
                <mxCell id="273" style="edgeStyle=none;html=1;exitX=1;exitY=1;exitDx=0;exitDy=0;entryX=0.5;entryY=0;entryDx=0;entryDy=0;" edge="1" parent="267" source="271" target="269">
                    <mxGeometry relative="1" as="geometry"/>
                </mxCell>
                <mxCell id="271" value="2" style="ellipse;whiteSpace=wrap;html=1;aspect=fixed;" vertex="1" parent="267">
                    <mxGeometry x="60" y="40" width="40" height="40" as="geometry"/>
                </mxCell>
                <mxCell id="270" value="3" style="ellipse;whiteSpace=wrap;html=1;aspect=fixed;" vertex="1" parent="267">
                    <mxGeometry x="60" y="200" width="40" height="40" as="geometry"/>
                </mxCell>
                <mxCell id="274" style="edgeStyle=none;html=1;exitX=0;exitY=1;exitDx=0;exitDy=0;entryX=0.5;entryY=0;entryDx=0;entryDy=0;" edge="1" parent="267" source="269" target="270">
                    <mxGeometry relative="1" as="geometry"/>
                </mxCell>
                <mxCell id="269" value="4" style="ellipse;whiteSpace=wrap;html=1;aspect=fixed;strokeWidth=3;" vertex="1" parent="267">
                    <mxGeometry x="100" y="120" width="40" height="40" as="geometry"/>
                </mxCell>
                <mxCell id="275" value="1" style="ellipse;whiteSpace=wrap;html=1;aspect=fixed;" vertex="1" parent="267">
                    <mxGeometry x="180" y="120" width="40" height="40" as="geometry"/>
                </mxCell>
                <mxCell id="276" style="edgeStyle=none;html=1;exitX=0;exitY=1;exitDx=0;exitDy=0;entryX=0.5;entryY=0;entryDx=0;entryDy=0;" edge="1" parent="267" source="278" target="275">
                    <mxGeometry relative="1" as="geometry"/>
                </mxCell>
                <mxCell id="278" value="2" style="ellipse;whiteSpace=wrap;html=1;aspect=fixed;" vertex="1" parent="267">
                    <mxGeometry x="220" y="40" width="40" height="40" as="geometry"/>
                </mxCell>
                <mxCell id="281" value="3" style="ellipse;whiteSpace=wrap;html=1;aspect=fixed;" vertex="1" parent="267">
                    <mxGeometry x="260" y="120" width="40" height="40" as="geometry"/>
                </mxCell>
                <mxCell id="277" style="edgeStyle=none;html=1;exitX=1;exitY=1;exitDx=0;exitDy=0;entryX=0.5;entryY=0;entryDx=0;entryDy=0;" edge="1" parent="267" source="278" target="281">
                    <mxGeometry relative="1" as="geometry"/>
                </mxCell>
                <mxCell id="282" value="&lt;span id=&quot;docs-internal-guid-1aef4bfb-7fff-c312-14d9-f56bea1e8512&quot; style=&quot;font-weight:normal;&quot;&gt;&lt;span style=&quot;font-size: 11pt; font-family: Arial, sans-serif; background-color: transparent; font-variant-numeric: normal; font-variant-east-asian: normal; font-variant-alternates: normal; vertical-align: baseline;&quot;&gt;Node has right subtree - 1&lt;/span&gt;&lt;/span&gt;" style="swimlane;whiteSpace=wrap;html=1;startSize=23;" vertex="1" parent="1">
                    <mxGeometry x="20" y="2040" width="640" height="340" as="geometry"/>
                </mxCell>
                <mxCell id="283" value="1" style="ellipse;whiteSpace=wrap;html=1;aspect=fixed;" vertex="1" parent="282">
                    <mxGeometry x="20" y="200" width="40" height="40" as="geometry"/>
                </mxCell>
                <mxCell id="284" style="edgeStyle=none;html=1;exitX=0;exitY=1;exitDx=0;exitDy=0;entryX=0.5;entryY=0;entryDx=0;entryDy=0;" edge="1" parent="282" source="286" target="283">
                    <mxGeometry relative="1" as="geometry"/>
                </mxCell>
                <mxCell id="285" style="edgeStyle=none;html=1;exitX=1;exitY=1;exitDx=0;exitDy=0;entryX=0.5;entryY=0;entryDx=0;entryDy=0;" edge="1" parent="282" source="286" target="289">
                    <mxGeometry relative="1" as="geometry"/>
                </mxCell>
                <mxCell id="286" value="2" style="ellipse;whiteSpace=wrap;html=1;aspect=fixed;" vertex="1" parent="282">
                    <mxGeometry x="60" y="120" width="40" height="40" as="geometry"/>
                </mxCell>
                <mxCell id="289" value="3" style="ellipse;whiteSpace=wrap;html=1;aspect=fixed;" vertex="1" parent="282">
                    <mxGeometry x="100" y="200" width="40" height="40" as="geometry"/>
                </mxCell>
                <mxCell id="300" style="edgeStyle=none;html=1;exitX=0;exitY=1;exitDx=0;exitDy=0;entryX=0.5;entryY=0;entryDx=0;entryDy=0;" edge="1" parent="282" source="295" target="286">
                    <mxGeometry relative="1" as="geometry"/>
                </mxCell>
                <mxCell id="301" style="edgeStyle=none;html=1;exitX=1;exitY=1;exitDx=0;exitDy=0;entryX=0.5;entryY=0;entryDx=0;entryDy=0;" edge="1" parent="282" source="295" target="296">
                    <mxGeometry relative="1" as="geometry"/>
                </mxCell>
                <mxCell id="295" value="4" style="ellipse;whiteSpace=wrap;html=1;aspect=fixed;" vertex="1" parent="282">
                    <mxGeometry x="140" y="40" width="40" height="40" as="geometry"/>
                </mxCell>
                <mxCell id="302" style="edgeStyle=none;html=1;exitX=0;exitY=1;exitDx=0;exitDy=0;entryX=0.5;entryY=0;entryDx=0;entryDy=0;" edge="1" parent="282" source="296" target="297">
                    <mxGeometry relative="1" as="geometry"/>
                </mxCell>
                <mxCell id="303" style="edgeStyle=none;html=1;exitX=1;exitY=1;exitDx=0;exitDy=0;entryX=0.5;entryY=0;entryDx=0;entryDy=0;" edge="1" parent="282" source="296" target="298">
                    <mxGeometry relative="1" as="geometry"/>
                </mxCell>
                <mxCell id="296" value="6" style="ellipse;whiteSpace=wrap;html=1;aspect=fixed;strokeWidth=3;" vertex="1" parent="282">
                    <mxGeometry x="220" y="120" width="40" height="40" as="geometry"/>
                </mxCell>
                <mxCell id="297" value="5" style="ellipse;whiteSpace=wrap;html=1;aspect=fixed;" vertex="1" parent="282">
                    <mxGeometry x="180" y="200" width="40" height="40" as="geometry"/>
                </mxCell>
                <mxCell id="304" style="edgeStyle=none;html=1;exitX=0;exitY=1;exitDx=0;exitDy=0;entryX=0.5;entryY=0;entryDx=0;entryDy=0;" edge="1" parent="282" source="298" target="299">
                    <mxGeometry relative="1" as="geometry"/>
                </mxCell>
                <mxCell id="298" value="8" style="ellipse;whiteSpace=wrap;html=1;aspect=fixed;" vertex="1" parent="282">
                    <mxGeometry x="260" y="200" width="40" height="40" as="geometry"/>
                </mxCell>
                <mxCell id="299" value="7" style="ellipse;whiteSpace=wrap;html=1;aspect=fixed;" vertex="1" parent="282">
                    <mxGeometry x="220" y="280" width="40" height="40" as="geometry"/>
                </mxCell>
                <mxCell id="305" value="1" style="ellipse;whiteSpace=wrap;html=1;aspect=fixed;" vertex="1" parent="282">
                    <mxGeometry x="340" y="200" width="40" height="40" as="geometry"/>
                </mxCell>
                <mxCell id="306" style="edgeStyle=none;html=1;exitX=0;exitY=1;exitDx=0;exitDy=0;entryX=0.5;entryY=0;entryDx=0;entryDy=0;" edge="1" parent="282" source="308" target="305">
                    <mxGeometry relative="1" as="geometry"/>
                </mxCell>
                <mxCell id="308" value="2" style="ellipse;whiteSpace=wrap;html=1;aspect=fixed;" vertex="1" parent="282">
                    <mxGeometry x="380" y="120" width="40" height="40" as="geometry"/>
                </mxCell>
                <mxCell id="309" value="3" style="ellipse;whiteSpace=wrap;html=1;aspect=fixed;" vertex="1" parent="282">
                    <mxGeometry x="420" y="200" width="40" height="40" as="geometry"/>
                </mxCell>
                <mxCell id="307" style="edgeStyle=none;html=1;exitX=1;exitY=1;exitDx=0;exitDy=0;entryX=0.5;entryY=0;entryDx=0;entryDy=0;" edge="1" parent="282" source="308" target="309">
                    <mxGeometry relative="1" as="geometry"/>
                </mxCell>
                <mxCell id="310" style="edgeStyle=none;html=1;exitX=0;exitY=1;exitDx=0;exitDy=0;entryX=0.5;entryY=0;entryDx=0;entryDy=0;" edge="1" parent="282" source="312" target="308">
                    <mxGeometry relative="1" as="geometry"/>
                </mxCell>
                <mxCell id="312" value="4" style="ellipse;whiteSpace=wrap;html=1;aspect=fixed;" vertex="1" parent="282">
                    <mxGeometry x="460" y="40" width="40" height="40" as="geometry"/>
                </mxCell>
                <mxCell id="311" style="edgeStyle=none;html=1;exitX=1;exitY=1;exitDx=0;exitDy=0;entryX=0.5;entryY=0;entryDx=0;entryDy=0;" edge="1" parent="282" source="312">
                    <mxGeometry relative="1" as="geometry">
                        <mxPoint x="560" y="119.99999999999955" as="targetPoint"/>
                    </mxGeometry>
                </mxCell>
                <mxCell id="316" value="5" style="ellipse;whiteSpace=wrap;html=1;aspect=fixed;" vertex="1" parent="282">
                    <mxGeometry x="500" y="200" width="40" height="40" as="geometry"/>
                </mxCell>
                <mxCell id="313" style="edgeStyle=none;html=1;exitX=0;exitY=1;exitDx=0;exitDy=0;entryX=0.5;entryY=0;entryDx=0;entryDy=0;" edge="1" parent="282" target="316">
                    <mxGeometry relative="1" as="geometry">
                        <mxPoint x="545.8578643762692" y="154.1421356237306" as="sourcePoint"/>
                    </mxGeometry>
                </mxCell>
                <mxCell id="318" value="8" style="ellipse;whiteSpace=wrap;html=1;aspect=fixed;" vertex="1" parent="282">
                    <mxGeometry x="580" y="200" width="40" height="40" as="geometry"/>
                </mxCell>
                <mxCell id="314" style="edgeStyle=none;html=1;exitX=1;exitY=1;exitDx=0;exitDy=0;entryX=0.5;entryY=0;entryDx=0;entryDy=0;" edge="1" parent="282" target="318">
                    <mxGeometry relative="1" as="geometry">
                        <mxPoint x="574.1421356237311" y="154.1421356237306" as="sourcePoint"/>
                    </mxGeometry>
                </mxCell>
                <mxCell id="319" value="7" style="ellipse;whiteSpace=wrap;html=1;aspect=fixed;" vertex="1" parent="282">
                    <mxGeometry x="540" y="120" width="40" height="40" as="geometry"/>
                </mxCell>
                <mxCell id="320" value="&lt;span id=&quot;docs-internal-guid-1aef4bfb-7fff-c312-14d9-f56bea1e8512&quot; style=&quot;font-weight:normal;&quot;&gt;&lt;span style=&quot;font-size: 11pt; font-family: Arial, sans-serif; background-color: transparent; font-variant-numeric: normal; font-variant-east-asian: normal; font-variant-alternates: normal; vertical-align: baseline;&quot;&gt;Node has right subtree - 2&lt;/span&gt;&lt;/span&gt;" style="swimlane;whiteSpace=wrap;html=1;startSize=23;" vertex="1" parent="1">
                    <mxGeometry x="20" y="2400" width="640" height="340" as="geometry"/>
                </mxCell>
                <mxCell id="321" value="1" style="ellipse;whiteSpace=wrap;html=1;aspect=fixed;" vertex="1" parent="320">
                    <mxGeometry x="20" y="200" width="40" height="40" as="geometry"/>
                </mxCell>
                <mxCell id="322" style="edgeStyle=none;html=1;exitX=0;exitY=1;exitDx=0;exitDy=0;entryX=0.5;entryY=0;entryDx=0;entryDy=0;" edge="1" parent="320" source="324" target="321">
                    <mxGeometry relative="1" as="geometry"/>
                </mxCell>
                <mxCell id="323" style="edgeStyle=none;html=1;exitX=1;exitY=1;exitDx=0;exitDy=0;entryX=0.5;entryY=0;entryDx=0;entryDy=0;" edge="1" parent="320" source="324" target="325">
                    <mxGeometry relative="1" as="geometry"/>
                </mxCell>
                <mxCell id="324" value="2" style="ellipse;whiteSpace=wrap;html=1;aspect=fixed;" vertex="1" parent="320">
                    <mxGeometry x="60" y="120" width="40" height="40" as="geometry"/>
                </mxCell>
                <mxCell id="325" value="3" style="ellipse;whiteSpace=wrap;html=1;aspect=fixed;" vertex="1" parent="320">
                    <mxGeometry x="100" y="200" width="40" height="40" as="geometry"/>
                </mxCell>
                <mxCell id="326" style="edgeStyle=none;html=1;exitX=0;exitY=1;exitDx=0;exitDy=0;entryX=0.5;entryY=0;entryDx=0;entryDy=0;" edge="1" parent="320" source="328" target="324">
                    <mxGeometry relative="1" as="geometry"/>
                </mxCell>
                <mxCell id="327" style="edgeStyle=none;html=1;exitX=1;exitY=1;exitDx=0;exitDy=0;entryX=0.5;entryY=0;entryDx=0;entryDy=0;" edge="1" parent="320" source="328" target="331">
                    <mxGeometry relative="1" as="geometry"/>
                </mxCell>
                <mxCell id="328" value="4" style="ellipse;whiteSpace=wrap;html=1;aspect=fixed;" vertex="1" parent="320">
                    <mxGeometry x="140" y="40" width="40" height="40" as="geometry"/>
                </mxCell>
                <mxCell id="329" style="edgeStyle=none;html=1;exitX=0;exitY=1;exitDx=0;exitDy=0;entryX=0.5;entryY=0;entryDx=0;entryDy=0;" edge="1" parent="320" source="331" target="332">
                    <mxGeometry relative="1" as="geometry"/>
                </mxCell>
                <mxCell id="330" style="edgeStyle=none;html=1;exitX=1;exitY=1;exitDx=0;exitDy=0;entryX=0.5;entryY=0;entryDx=0;entryDy=0;" edge="1" parent="320" source="331" target="334">
                    <mxGeometry relative="1" as="geometry"/>
                </mxCell>
                <mxCell id="331" value="6" style="ellipse;whiteSpace=wrap;html=1;aspect=fixed;strokeWidth=3;" vertex="1" parent="320">
                    <mxGeometry x="220" y="120" width="40" height="40" as="geometry"/>
                </mxCell>
                <mxCell id="332" value="5" style="ellipse;whiteSpace=wrap;html=1;aspect=fixed;" vertex="1" parent="320">
                    <mxGeometry x="180" y="200" width="40" height="40" as="geometry"/>
                </mxCell>
                <mxCell id="349" style="edgeStyle=none;html=1;exitX=1;exitY=1;exitDx=0;exitDy=0;entryX=0.5;entryY=0;entryDx=0;entryDy=0;" edge="1" parent="320" source="334" target="335">
                    <mxGeometry relative="1" as="geometry"/>
                </mxCell>
                <mxCell id="334" value="8" style="ellipse;whiteSpace=wrap;html=1;aspect=fixed;" vertex="1" parent="320">
                    <mxGeometry x="260" y="200" width="40" height="40" as="geometry"/>
                </mxCell>
                <mxCell id="335" value="9" style="ellipse;whiteSpace=wrap;html=1;aspect=fixed;" vertex="1" parent="320">
                    <mxGeometry x="300" y="280" width="40" height="40" as="geometry"/>
                </mxCell>
                <mxCell id="336" value="1" style="ellipse;whiteSpace=wrap;html=1;aspect=fixed;" vertex="1" parent="320">
                    <mxGeometry x="340" y="200" width="40" height="40" as="geometry"/>
                </mxCell>
                <mxCell id="337" style="edgeStyle=none;html=1;exitX=0;exitY=1;exitDx=0;exitDy=0;entryX=0.5;entryY=0;entryDx=0;entryDy=0;" edge="1" parent="320" source="338" target="336">
                    <mxGeometry relative="1" as="geometry"/>
                </mxCell>
                <mxCell id="338" value="2" style="ellipse;whiteSpace=wrap;html=1;aspect=fixed;" vertex="1" parent="320">
                    <mxGeometry x="380" y="120" width="40" height="40" as="geometry"/>
                </mxCell>
                <mxCell id="339" value="3" style="ellipse;whiteSpace=wrap;html=1;aspect=fixed;" vertex="1" parent="320">
                    <mxGeometry x="420" y="200" width="40" height="40" as="geometry"/>
                </mxCell>
                <mxCell id="340" style="edgeStyle=none;html=1;exitX=1;exitY=1;exitDx=0;exitDy=0;entryX=0.5;entryY=0;entryDx=0;entryDy=0;" edge="1" parent="320" source="338" target="339">
                    <mxGeometry relative="1" as="geometry"/>
                </mxCell>
                <mxCell id="341" style="edgeStyle=none;html=1;exitX=0;exitY=1;exitDx=0;exitDy=0;entryX=0.5;entryY=0;entryDx=0;entryDy=0;" edge="1" parent="320" source="342" target="338">
                    <mxGeometry relative="1" as="geometry"/>
                </mxCell>
                <mxCell id="342" value="4" style="ellipse;whiteSpace=wrap;html=1;aspect=fixed;" vertex="1" parent="320">
                    <mxGeometry x="460" y="40" width="40" height="40" as="geometry"/>
                </mxCell>
                <mxCell id="343" style="edgeStyle=none;html=1;exitX=1;exitY=1;exitDx=0;exitDy=0;entryX=0.5;entryY=0;entryDx=0;entryDy=0;" edge="1" parent="320" source="342">
                    <mxGeometry relative="1" as="geometry">
                        <mxPoint x="560" y="119.99999999999955" as="targetPoint"/>
                    </mxGeometry>
                </mxCell>
                <mxCell id="344" value="5" style="ellipse;whiteSpace=wrap;html=1;aspect=fixed;" vertex="1" parent="320">
                    <mxGeometry x="500" y="200" width="40" height="40" as="geometry"/>
                </mxCell>
                <mxCell id="345" style="edgeStyle=none;html=1;exitX=0;exitY=1;exitDx=0;exitDy=0;entryX=0.5;entryY=0;entryDx=0;entryDy=0;" edge="1" parent="320" target="344">
                    <mxGeometry relative="1" as="geometry">
                        <mxPoint x="545.8578643762692" y="154.1421356237306" as="sourcePoint"/>
                    </mxGeometry>
                </mxCell>
                <mxCell id="346" value="9" style="ellipse;whiteSpace=wrap;html=1;aspect=fixed;" vertex="1" parent="320">
                    <mxGeometry x="580" y="200" width="40" height="40" as="geometry"/>
                </mxCell>
                <mxCell id="347" style="edgeStyle=none;html=1;exitX=1;exitY=1;exitDx=0;exitDy=0;entryX=0.5;entryY=0;entryDx=0;entryDy=0;" edge="1" parent="320" target="346">
                    <mxGeometry relative="1" as="geometry">
                        <mxPoint x="574.1421356237311" y="154.1421356237306" as="sourcePoint"/>
                    </mxGeometry>
                </mxCell>
                <mxCell id="348" value="8" style="ellipse;whiteSpace=wrap;html=1;aspect=fixed;" vertex="1" parent="320">
                    <mxGeometry x="540" y="120" width="40" height="40" as="geometry"/>
                </mxCell>
                <mxCell id="352" value="Left rotation" style="swimlane;whiteSpace=wrap;html=1;strokeWidth=1;" vertex="1" parent="1">
                    <mxGeometry x="20" y="20" width="300" height="260" as="geometry"/>
                </mxCell>
                <mxCell id="43" value="4" style="ellipse;whiteSpace=wrap;html=1;aspect=fixed;" parent="352" vertex="1">
                    <mxGeometry x="100" y="200" width="40" height="40" as="geometry"/>
                </mxCell>
                <mxCell id="52" style="edgeStyle=none;html=1;exitX=1;exitY=1;exitDx=0;exitDy=0;entryX=0.5;entryY=0;entryDx=0;entryDy=0;" parent="352" source="44" target="43" edge="1">
                    <mxGeometry relative="1" as="geometry"/>
                </mxCell>
                <mxCell id="44" value="3" style="ellipse;whiteSpace=wrap;html=1;aspect=fixed;" parent="352" vertex="1">
                    <mxGeometry x="60" y="120" width="40" height="40" as="geometry"/>
                </mxCell>
                <mxCell id="47" value="2" style="ellipse;whiteSpace=wrap;html=1;aspect=fixed;" parent="352" vertex="1">
                    <mxGeometry x="20" y="200" width="40" height="40" as="geometry"/>
                </mxCell>
                <mxCell id="51" style="edgeStyle=none;html=1;exitX=0;exitY=1;exitDx=0;exitDy=0;entryX=0.5;entryY=0;entryDx=0;entryDy=0;strokeWidth=3;" parent="352" source="44" target="47" edge="1">
                    <mxGeometry relative="1" as="geometry"/>
                </mxCell>
                <mxCell id="50" style="edgeStyle=none;html=1;exitX=1;exitY=1;exitDx=0;exitDy=0;entryX=0.5;entryY=0;entryDx=0;entryDy=0;strokeWidth=3;" parent="352" source="48" target="44" edge="1">
                    <mxGeometry relative="1" as="geometry"/>
                </mxCell>
                <mxCell id="48" value="1" style="ellipse;whiteSpace=wrap;html=1;aspect=fixed;" parent="352" vertex="1">
                    <mxGeometry x="20" y="40" width="40" height="40" as="geometry"/>
                </mxCell>
                <mxCell id="53" value="4" style="ellipse;whiteSpace=wrap;html=1;aspect=fixed;" parent="352" vertex="1">
                    <mxGeometry x="240" y="120" width="40" height="40" as="geometry"/>
                </mxCell>
                <mxCell id="62" style="edgeStyle=none;html=1;exitX=1;exitY=1;exitDx=0;exitDy=0;entryX=0.5;entryY=0;entryDx=0;entryDy=0;" parent="352" source="56" edge="1">
                    <mxGeometry relative="1" as="geometry">
                        <mxPoint x="260" y="120" as="targetPoint"/>
                    </mxGeometry>
                </mxCell>
                <mxCell id="56" value="3" style="ellipse;whiteSpace=wrap;html=1;aspect=fixed;" parent="352" vertex="1">
                    <mxGeometry x="200" y="40" width="40" height="40" as="geometry"/>
                </mxCell>
                <mxCell id="57" value="2" style="ellipse;whiteSpace=wrap;html=1;aspect=fixed;" parent="352" vertex="1">
                    <mxGeometry x="200" y="200" width="40" height="40" as="geometry"/>
                </mxCell>
                <mxCell id="60" style="edgeStyle=none;html=1;exitX=1;exitY=1;exitDx=0;exitDy=0;entryX=0.5;entryY=0;entryDx=0;entryDy=0;strokeWidth=3;" parent="352" source="59" target="57" edge="1">
                    <mxGeometry relative="1" as="geometry"/>
                </mxCell>
                <mxCell id="59" value="1" style="ellipse;whiteSpace=wrap;html=1;aspect=fixed;" parent="352" vertex="1">
                    <mxGeometry x="160" y="120" width="40" height="40" as="geometry"/>
                </mxCell>
                <mxCell id="61" style="edgeStyle=none;html=1;exitX=0;exitY=1;exitDx=0;exitDy=0;entryX=0.5;entryY=0;entryDx=0;entryDy=0;strokeWidth=3;" parent="352" source="56" target="59" edge="1">
                    <mxGeometry relative="1" as="geometry"/>
                </mxCell>
                <mxCell id="353" value="Right rotation" style="swimlane;whiteSpace=wrap;html=1;strokeWidth=1;" vertex="1" parent="1">
                    <mxGeometry x="340" y="20" width="300" height="260" as="geometry"/>
                </mxCell>
                <mxCell id="22" value="4" style="ellipse;whiteSpace=wrap;html=1;aspect=fixed;" parent="353" vertex="1">
                    <mxGeometry x="100" y="35" width="40" height="40" as="geometry"/>
                </mxCell>
                <mxCell id="23" value="3" style="ellipse;whiteSpace=wrap;html=1;aspect=fixed;" parent="353" vertex="1">
                    <mxGeometry x="100" y="195" width="40" height="40" as="geometry"/>
                </mxCell>
                <mxCell id="25" style="edgeStyle=none;html=1;exitX=1;exitY=1;exitDx=0;exitDy=0;entryX=0.5;entryY=0;entryDx=0;entryDy=0;strokeWidth=3;" parent="353" source="26" target="23" edge="1">
                    <mxGeometry relative="1" as="geometry"/>
                </mxCell>
                <mxCell id="26" value="2" style="ellipse;whiteSpace=wrap;html=1;aspect=fixed;" parent="353" vertex="1">
                    <mxGeometry x="60" y="115" width="40" height="40" as="geometry"/>
                </mxCell>
                <mxCell id="21" style="edgeStyle=none;html=1;exitX=0;exitY=1;exitDx=0;exitDy=0;entryX=0.5;entryY=0;entryDx=0;entryDy=0;strokeWidth=3;" parent="353" source="22" target="26" edge="1">
                    <mxGeometry relative="1" as="geometry"/>
                </mxCell>
                <mxCell id="27" value="1" style="ellipse;whiteSpace=wrap;html=1;aspect=fixed;" parent="353" vertex="1">
                    <mxGeometry x="20" y="195" width="40" height="40" as="geometry"/>
                </mxCell>
                <mxCell id="24" style="edgeStyle=none;html=1;exitX=0;exitY=1;exitDx=0;exitDy=0;entryX=0.5;entryY=0;entryDx=0;entryDy=0;" parent="353" source="26" target="27" edge="1">
                    <mxGeometry relative="1" as="geometry"/>
                </mxCell>
                <mxCell id="35" value="2" style="ellipse;whiteSpace=wrap;html=1;aspect=fixed;" parent="353" vertex="1">
                    <mxGeometry x="200" y="35" width="40" height="40" as="geometry"/>
                </mxCell>
                <mxCell id="36" value="4" style="ellipse;whiteSpace=wrap;html=1;aspect=fixed;" parent="353" vertex="1">
                    <mxGeometry x="240" y="115" width="40" height="40" as="geometry"/>
                </mxCell>
                <mxCell id="40" style="edgeStyle=none;html=1;exitX=1;exitY=1;exitDx=0;exitDy=0;entryX=0.5;entryY=0;entryDx=0;entryDy=0;strokeWidth=3;" parent="353" source="35" target="36" edge="1">
                    <mxGeometry relative="1" as="geometry"/>
                </mxCell>
                <mxCell id="37" value="3" style="ellipse;whiteSpace=wrap;html=1;aspect=fixed;" parent="353" vertex="1">
                    <mxGeometry x="200" y="195" width="40" height="40" as="geometry"/>
                </mxCell>
                <mxCell id="39" style="edgeStyle=none;html=1;exitX=0;exitY=1;exitDx=0;exitDy=0;entryX=0.5;entryY=0;entryDx=0;entryDy=0;strokeWidth=3;" parent="353" source="36" target="37" edge="1">
                    <mxGeometry relative="1" as="geometry"/>
                </mxCell>
                <mxCell id="38" value="1" style="ellipse;whiteSpace=wrap;html=1;aspect=fixed;" parent="353" vertex="1">
                    <mxGeometry x="160" y="115" width="40" height="40" as="geometry"/>
                </mxCell>
                <mxCell id="41" style="edgeStyle=none;html=1;exitX=0;exitY=1;exitDx=0;exitDy=0;entryX=0.5;entryY=0;entryDx=0;entryDy=0;" parent="353" source="35" target="38" edge="1">
                    <mxGeometry relative="1" as="geometry"/>
                </mxCell>
                <mxCell id="354" value="Balancing 1" style="swimlane;whiteSpace=wrap;html=1;strokeWidth=1;" vertex="1" parent="1">
                    <mxGeometry x="20" y="320" width="640" height="340" as="geometry"/>
                </mxCell>
                <mxCell id="70" value="3" style="ellipse;whiteSpace=wrap;html=1;aspect=fixed;" parent="354" vertex="1">
                    <mxGeometry x="100" y="120" width="40" height="40" as="geometry"/>
                </mxCell>
                <mxCell id="72" style="edgeStyle=none;html=1;exitX=1;exitY=1;exitDx=0;exitDy=0;entryX=0.5;entryY=0;entryDx=0;entryDy=0;" parent="354" source="73" target="70" edge="1">
                    <mxGeometry relative="1" as="geometry"/>
                </mxCell>
                <mxCell id="73" value="2" style="ellipse;whiteSpace=wrap;html=1;aspect=fixed;" parent="354" vertex="1">
                    <mxGeometry x="60" y="40" width="40" height="40" as="geometry"/>
                </mxCell>
                <mxCell id="74" value="1" style="ellipse;whiteSpace=wrap;html=1;aspect=fixed;" parent="354" vertex="1">
                    <mxGeometry x="20" y="120" width="40" height="40" as="geometry"/>
                </mxCell>
                <mxCell id="71" style="edgeStyle=none;html=1;exitX=0;exitY=1;exitDx=0;exitDy=0;entryX=0.5;entryY=0;entryDx=0;entryDy=0;strokeWidth=1;" parent="354" source="73" target="74" edge="1">
                    <mxGeometry relative="1" as="geometry"/>
                </mxCell>
                <mxCell id="77" value="4" style="ellipse;whiteSpace=wrap;html=1;aspect=fixed;" parent="354" vertex="1">
                    <mxGeometry x="140" y="200" width="40" height="40" as="geometry"/>
                </mxCell>
                <mxCell id="78" style="edgeStyle=none;html=1;exitX=1;exitY=1;exitDx=0;exitDy=0;entryX=0.5;entryY=0;entryDx=0;entryDy=0;strokeWidth=1;" parent="354" source="70" target="77" edge="1">
                    <mxGeometry relative="1" as="geometry"/>
                </mxCell>
                <mxCell id="80" value="3" style="ellipse;whiteSpace=wrap;html=1;aspect=fixed;" parent="354" vertex="1">
                    <mxGeometry x="300" y="120" width="40" height="40" as="geometry"/>
                </mxCell>
                <mxCell id="82" value="3" style="edgeStyle=none;html=1;exitX=1;exitY=1;exitDx=0;exitDy=0;entryX=0.5;entryY=0;entryDx=0;entryDy=0;" parent="354" source="83" target="80" edge="1">
                    <mxGeometry relative="1" as="geometry"/>
                </mxCell>
                <mxCell id="83" value="2" style="ellipse;whiteSpace=wrap;html=1;aspect=fixed;" parent="354" vertex="1">
                    <mxGeometry x="260" y="40" width="40" height="40" as="geometry"/>
                </mxCell>
                <mxCell id="84" value="1" style="ellipse;whiteSpace=wrap;html=1;aspect=fixed;" parent="354" vertex="1">
                    <mxGeometry x="220" y="120" width="40" height="40" as="geometry"/>
                </mxCell>
                <mxCell id="81" value="1" style="edgeStyle=none;html=1;exitX=0;exitY=1;exitDx=0;exitDy=0;entryX=0.5;entryY=0;entryDx=0;entryDy=0;strokeWidth=1;" parent="354" source="83" target="84" edge="1">
                    <mxGeometry relative="1" as="geometry"/>
                </mxCell>
                <mxCell id="85" value="4" style="ellipse;whiteSpace=wrap;html=1;aspect=fixed;" parent="354" vertex="1">
                    <mxGeometry x="340" y="200" width="40" height="40" as="geometry"/>
                </mxCell>
                <mxCell id="79" value="2" style="edgeStyle=none;html=1;exitX=1;exitY=1;exitDx=0;exitDy=0;entryX=0.5;entryY=0;entryDx=0;entryDy=0;strokeWidth=1;" parent="354" source="80" target="85" edge="1">
                    <mxGeometry relative="1" as="geometry"/>
                </mxCell>
                <mxCell id="86" value="5" style="ellipse;whiteSpace=wrap;html=1;aspect=fixed;" parent="354" vertex="1">
                    <mxGeometry x="380" y="280" width="40" height="40" as="geometry"/>
                </mxCell>
                <mxCell id="87" value="1" style="edgeStyle=none;html=1;exitX=1;exitY=1;exitDx=0;exitDy=0;entryX=0.5;entryY=0;entryDx=0;entryDy=0;strokeWidth=1;" parent="354" source="85" target="86" edge="1">
                    <mxGeometry relative="1" as="geometry"/>
                </mxCell>
                <mxCell id="89" value="3" style="ellipse;whiteSpace=wrap;html=1;aspect=fixed;" parent="354" vertex="1">
                    <mxGeometry x="500" y="200" width="40" height="40" as="geometry"/>
                </mxCell>
                <mxCell id="92" value="2" style="ellipse;whiteSpace=wrap;html=1;aspect=fixed;" parent="354" vertex="1">
                    <mxGeometry x="500" y="40" width="40" height="40" as="geometry"/>
                </mxCell>
                <mxCell id="93" value="1" style="ellipse;whiteSpace=wrap;html=1;aspect=fixed;" parent="354" vertex="1">
                    <mxGeometry x="460" y="120" width="40" height="40" as="geometry"/>
                </mxCell>
                <mxCell id="90" value="1" style="edgeStyle=none;html=1;exitX=0;exitY=1;exitDx=0;exitDy=0;entryX=0.5;entryY=0;entryDx=0;entryDy=0;strokeWidth=1;" parent="354" source="92" target="93" edge="1">
                    <mxGeometry relative="1" as="geometry"/>
                </mxCell>
                <mxCell id="142" value="1" style="edgeStyle=none;html=1;exitX=0;exitY=1;exitDx=0;exitDy=0;entryX=0.5;entryY=0;entryDx=0;entryDy=0;strokeWidth=1;" parent="354" source="95" target="89" edge="1">
                    <mxGeometry relative="1" as="geometry"/>
                </mxCell>
                <mxCell id="95" value="4" style="ellipse;whiteSpace=wrap;html=1;aspect=fixed;" parent="354" vertex="1">
                    <mxGeometry x="540" y="120" width="40" height="40" as="geometry"/>
                </mxCell>
                <mxCell id="143" value="2" style="edgeStyle=none;html=1;exitX=1;exitY=1;exitDx=0;exitDy=0;entryX=0.5;entryY=0;entryDx=0;entryDy=0;strokeWidth=1;" parent="354" source="92" target="95" edge="1">
                    <mxGeometry relative="1" as="geometry"/>
                </mxCell>
                <mxCell id="96" value="5" style="ellipse;whiteSpace=wrap;html=1;aspect=fixed;" parent="354" vertex="1">
                    <mxGeometry x="580" y="200" width="40" height="40" as="geometry"/>
                </mxCell>
                <mxCell id="141" value="1" style="edgeStyle=none;html=1;exitX=1;exitY=1;exitDx=0;exitDy=0;entryX=0.5;entryY=0;entryDx=0;entryDy=0;strokeWidth=1;" parent="354" source="95" target="96" edge="1">
                    <mxGeometry relative="1" as="geometry"/>
                </mxCell>
                <mxCell id="355" value="Balancing 2" style="swimlane;whiteSpace=wrap;html=1;strokeWidth=1;" vertex="1" parent="1">
                    <mxGeometry x="20" y="680" width="800" height="340" as="geometry"/>
                </mxCell>
                <mxCell id="145" value="3" style="ellipse;whiteSpace=wrap;html=1;aspect=fixed;" parent="355" vertex="1">
                    <mxGeometry x="300" y="120" width="40" height="40" as="geometry"/>
                </mxCell>
                <mxCell id="147" value="3" style="edgeStyle=none;html=1;exitX=1;exitY=1;exitDx=0;exitDy=0;entryX=0.5;entryY=0;entryDx=0;entryDy=0;" parent="355" source="148" target="145" edge="1">
                    <mxGeometry relative="1" as="geometry"/>
                </mxCell>
                <mxCell id="148" value="2" style="ellipse;whiteSpace=wrap;html=1;aspect=fixed;" parent="355" vertex="1">
                    <mxGeometry x="260" y="40" width="40" height="40" as="geometry"/>
                </mxCell>
                <mxCell id="149" value="1" style="ellipse;whiteSpace=wrap;html=1;aspect=fixed;" parent="355" vertex="1">
                    <mxGeometry x="220" y="120" width="40" height="40" as="geometry"/>
                </mxCell>
                <mxCell id="146" value="1" style="edgeStyle=none;html=1;exitX=0;exitY=1;exitDx=0;exitDy=0;entryX=0.5;entryY=0;entryDx=0;entryDy=0;strokeWidth=1;" parent="355" source="148" target="149" edge="1">
                    <mxGeometry relative="1" as="geometry"/>
                </mxCell>
                <mxCell id="169" value="5" style="ellipse;whiteSpace=wrap;html=1;aspect=fixed;" parent="355" vertex="1">
                    <mxGeometry x="340" y="200" width="40" height="40" as="geometry"/>
                </mxCell>
                <mxCell id="171" value="2" style="edgeStyle=none;html=1;exitX=1;exitY=1;exitDx=0;exitDy=0;entryX=0.5;entryY=0;entryDx=0;entryDy=0;strokeWidth=1;" parent="355" source="145" target="169" edge="1">
                    <mxGeometry relative="1" as="geometry"/>
                </mxCell>
                <mxCell id="170" value="4" style="ellipse;whiteSpace=wrap;html=1;aspect=fixed;" parent="355" vertex="1">
                    <mxGeometry x="300" y="280" width="40" height="40" as="geometry"/>
                </mxCell>
                <mxCell id="172" value="1" style="edgeStyle=none;html=1;exitX=0;exitY=1;exitDx=0;exitDy=0;entryX=0.5;entryY=0;entryDx=0;entryDy=0;strokeWidth=1;" parent="355" source="169" target="170" edge="1">
                    <mxGeometry relative="1" as="geometry"/>
                </mxCell>
                <mxCell id="174" value="3" style="ellipse;whiteSpace=wrap;html=1;aspect=fixed;" parent="355" vertex="1">
                    <mxGeometry x="100" y="120" width="40" height="40" as="geometry"/>
                </mxCell>
                <mxCell id="183" style="edgeStyle=none;html=1;exitX=1;exitY=1;exitDx=0;exitDy=0;entryX=0.5;entryY=0;entryDx=0;entryDy=0;strokeWidth=1;" parent="355" source="177" target="174" edge="1">
                    <mxGeometry relative="1" as="geometry"/>
                </mxCell>
                <mxCell id="177" value="2" style="ellipse;whiteSpace=wrap;html=1;aspect=fixed;" parent="355" vertex="1">
                    <mxGeometry x="60" y="40" width="40" height="40" as="geometry"/>
                </mxCell>
                <mxCell id="178" value="1" style="ellipse;whiteSpace=wrap;html=1;aspect=fixed;" parent="355" vertex="1">
                    <mxGeometry x="20" y="120" width="40" height="40" as="geometry"/>
                </mxCell>
                <mxCell id="182" style="edgeStyle=none;html=1;exitX=0;exitY=1;exitDx=0;exitDy=0;entryX=0.5;entryY=0;entryDx=0;entryDy=0;strokeWidth=1;" parent="355" source="177" target="178" edge="1">
                    <mxGeometry relative="1" as="geometry"/>
                </mxCell>
                <mxCell id="180" value="5" style="ellipse;whiteSpace=wrap;html=1;aspect=fixed;" parent="355" vertex="1">
                    <mxGeometry x="140" y="200" width="40" height="40" as="geometry"/>
                </mxCell>
                <mxCell id="184" style="edgeStyle=none;html=1;exitX=1;exitY=1;exitDx=0;exitDy=0;entryX=0.5;entryY=0;entryDx=0;entryDy=0;strokeWidth=1;" parent="355" source="174" target="180" edge="1">
                    <mxGeometry relative="1" as="geometry"/>
                </mxCell>
                <mxCell id="186" value="3" style="ellipse;whiteSpace=wrap;html=1;aspect=fixed;" parent="355" vertex="1">
                    <mxGeometry x="500" y="120" width="40" height="40" as="geometry"/>
                </mxCell>
                <mxCell id="194" value="3" style="edgeStyle=none;html=1;exitX=1;exitY=1;exitDx=0;exitDy=0;entryX=0.5;entryY=0;entryDx=0;entryDy=0;strokeWidth=1;" parent="355" source="189" target="186" edge="1">
                    <mxGeometry relative="1" as="geometry"/>
                </mxCell>
                <mxCell id="189" value="2" style="ellipse;whiteSpace=wrap;html=1;aspect=fixed;" parent="355" vertex="1">
                    <mxGeometry x="460" y="40" width="40" height="40" as="geometry"/>
                </mxCell>
                <mxCell id="190" value="1" style="ellipse;whiteSpace=wrap;html=1;aspect=fixed;" parent="355" vertex="1">
                    <mxGeometry x="420" y="120" width="40" height="40" as="geometry"/>
                </mxCell>
                <mxCell id="187" value="1" style="edgeStyle=none;html=1;exitX=0;exitY=1;exitDx=0;exitDy=0;entryX=0.5;entryY=0;entryDx=0;entryDy=0;strokeWidth=1;" parent="355" source="189" target="190" edge="1">
                    <mxGeometry relative="1" as="geometry"/>
                </mxCell>
                <mxCell id="192" value="5" style="ellipse;whiteSpace=wrap;html=1;aspect=fixed;" parent="355" vertex="1">
                    <mxGeometry x="580" y="280" width="40" height="40" as="geometry"/>
                </mxCell>
                <mxCell id="196" value="1" style="edgeStyle=none;html=1;exitX=1;exitY=1;exitDx=0;exitDy=0;entryX=0.5;entryY=0;entryDx=0;entryDy=0;strokeWidth=1;" parent="355" source="193" target="192" edge="1">
                    <mxGeometry relative="1" as="geometry"/>
                </mxCell>
                <mxCell id="193" value="4" style="ellipse;whiteSpace=wrap;html=1;aspect=fixed;" parent="355" vertex="1">
                    <mxGeometry x="540" y="200" width="40" height="40" as="geometry"/>
                </mxCell>
                <mxCell id="195" value="2" style="edgeStyle=none;html=1;exitX=1;exitY=1;exitDx=0;exitDy=0;entryX=0.5;entryY=0;entryDx=0;entryDy=0;strokeWidth=1;" parent="355" source="186" target="193" edge="1">
                    <mxGeometry relative="1" as="geometry"/>
                </mxCell>
                <mxCell id="198" value="3" style="ellipse;whiteSpace=wrap;html=1;aspect=fixed;" parent="355" vertex="1">
                    <mxGeometry x="660" y="200" width="40" height="40" as="geometry"/>
                </mxCell>
                <mxCell id="201" value="2" style="ellipse;whiteSpace=wrap;html=1;aspect=fixed;" parent="355" vertex="1">
                    <mxGeometry x="660" y="40" width="40" height="40" as="geometry"/>
                </mxCell>
                <mxCell id="202" value="1" style="ellipse;whiteSpace=wrap;html=1;aspect=fixed;" parent="355" vertex="1">
                    <mxGeometry x="620" y="120" width="40" height="40" as="geometry"/>
                </mxCell>
                <mxCell id="199" value="1" style="edgeStyle=none;html=1;exitX=0;exitY=1;exitDx=0;exitDy=0;entryX=0.5;entryY=0;entryDx=0;entryDy=0;strokeWidth=1;" parent="355" source="201" target="202" edge="1">
                    <mxGeometry relative="1" as="geometry"/>
                </mxCell>
                <mxCell id="203" value="5" style="ellipse;whiteSpace=wrap;html=1;aspect=fixed;" parent="355" vertex="1">
                    <mxGeometry x="740" y="200" width="40" height="40" as="geometry"/>
                </mxCell>
                <mxCell id="207" value="1" style="edgeStyle=none;html=1;exitX=0;exitY=1;exitDx=0;exitDy=0;entryX=0.5;entryY=0;entryDx=0;entryDy=0;strokeWidth=1;" parent="355" source="205" target="198" edge="1">
                    <mxGeometry relative="1" as="geometry"/>
                </mxCell>
                <mxCell id="208" value="1" style="edgeStyle=none;html=1;exitX=1;exitY=1;exitDx=0;exitDy=0;entryX=0.5;entryY=0;entryDx=0;entryDy=0;strokeWidth=1;" parent="355" source="205" target="203" edge="1">
                    <mxGeometry relative="1" as="geometry"/>
                </mxCell>
                <mxCell id="205" value="4" style="ellipse;whiteSpace=wrap;html=1;aspect=fixed;" parent="355" vertex="1">
                    <mxGeometry x="700" y="120" width="40" height="40" as="geometry"/>
                </mxCell>
                <mxCell id="206" value="2" style="edgeStyle=none;html=1;exitX=1;exitY=1;exitDx=0;exitDy=0;entryX=0.5;entryY=0;entryDx=0;entryDy=0;strokeWidth=1;" parent="355" source="201" target="205" edge="1">
                    <mxGeometry relative="1" as="geometry"/>
                </mxCell>
                <mxCell id="356" value="Balancing 3" style="swimlane;whiteSpace=wrap;html=1;strokeWidth=1;" vertex="1" parent="1">
                    <mxGeometry x="20" y="1040" width="560" height="340" as="geometry"/>
                </mxCell>
                <mxCell id="98" value="6" style="ellipse;whiteSpace=wrap;html=1;aspect=fixed;" parent="356" vertex="1">
                    <mxGeometry x="100" y="120" width="40" height="40" as="geometry"/>
                </mxCell>
                <mxCell id="100" style="edgeStyle=none;html=1;exitX=1;exitY=1;exitDx=0;exitDy=0;entryX=0.5;entryY=0;entryDx=0;entryDy=0;" parent="356" source="101" target="98" edge="1">
                    <mxGeometry relative="1" as="geometry"/>
                </mxCell>
                <mxCell id="101" value="2" style="ellipse;whiteSpace=wrap;html=1;aspect=fixed;" parent="356" vertex="1">
                    <mxGeometry x="60" y="40" width="40" height="40" as="geometry"/>
                </mxCell>
                <mxCell id="102" value="1" style="ellipse;whiteSpace=wrap;html=1;aspect=fixed;" parent="356" vertex="1">
                    <mxGeometry x="20" y="120" width="40" height="40" as="geometry"/>
                </mxCell>
                <mxCell id="99" style="edgeStyle=none;html=1;exitX=0;exitY=1;exitDx=0;exitDy=0;entryX=0.5;entryY=0;entryDx=0;entryDy=0;strokeWidth=1;" parent="356" source="101" target="102" edge="1">
                    <mxGeometry relative="1" as="geometry"/>
                </mxCell>
                <mxCell id="103" value="4" style="ellipse;whiteSpace=wrap;html=1;aspect=fixed;" parent="356" vertex="1">
                    <mxGeometry x="60" y="200" width="40" height="40" as="geometry"/>
                </mxCell>
                <mxCell id="122" style="edgeStyle=none;html=1;exitX=0;exitY=1;exitDx=0;exitDy=0;entryX=0.5;entryY=0;entryDx=0;entryDy=0;strokeWidth=1;" parent="356" source="98" target="103" edge="1">
                    <mxGeometry relative="1" as="geometry"/>
                </mxCell>
                <mxCell id="123" value="3" style="ellipse;whiteSpace=wrap;html=1;aspect=fixed;" parent="356" vertex="1">
                    <mxGeometry x="220" y="280" width="40" height="40" as="geometry"/>
                </mxCell>
                <mxCell id="125" value="6" style="ellipse;whiteSpace=wrap;html=1;aspect=fixed;" parent="356" vertex="1">
                    <mxGeometry x="300" y="120" width="40" height="40" as="geometry"/>
                </mxCell>
                <mxCell id="127" value="3" style="edgeStyle=none;html=1;exitX=1;exitY=1;exitDx=0;exitDy=0;entryX=0.5;entryY=0;entryDx=0;entryDy=0;" parent="356" source="128" target="125" edge="1">
                    <mxGeometry relative="1" as="geometry"/>
                </mxCell>
                <mxCell id="128" value="2" style="ellipse;whiteSpace=wrap;html=1;aspect=fixed;" parent="356" vertex="1">
                    <mxGeometry x="260" y="40" width="40" height="40" as="geometry"/>
                </mxCell>
                <mxCell id="129" value="1" style="ellipse;whiteSpace=wrap;html=1;aspect=fixed;" parent="356" vertex="1">
                    <mxGeometry x="220" y="120" width="40" height="40" as="geometry"/>
                </mxCell>
                <mxCell id="126" value="1" style="edgeStyle=none;html=1;exitX=0;exitY=1;exitDx=0;exitDy=0;entryX=0.5;entryY=0;entryDx=0;entryDy=0;strokeWidth=1;" parent="356" source="128" target="129" edge="1">
                    <mxGeometry relative="1" as="geometry"/>
                </mxCell>
                <mxCell id="131" value="1" style="edgeStyle=none;html=1;exitX=0;exitY=1;exitDx=0;exitDy=0;entryX=0.5;entryY=0;entryDx=0;entryDy=0;strokeWidth=1;" parent="356" source="130" target="123" edge="1">
                    <mxGeometry relative="1" as="geometry"/>
                </mxCell>
                <mxCell id="130" value="4" style="ellipse;whiteSpace=wrap;html=1;aspect=fixed;" parent="356" vertex="1">
                    <mxGeometry x="260" y="200" width="40" height="40" as="geometry"/>
                </mxCell>
                <mxCell id="124" value="2" style="edgeStyle=none;html=1;exitX=0;exitY=1;exitDx=0;exitDy=0;entryX=0.5;entryY=0;entryDx=0;entryDy=0;strokeWidth=1;" parent="356" source="125" target="130" edge="1">
                    <mxGeometry relative="1" as="geometry"/>
                </mxCell>
                <mxCell id="132" value="3" style="ellipse;whiteSpace=wrap;html=1;aspect=fixed;" parent="356" vertex="1">
                    <mxGeometry x="420" y="200" width="40" height="40" as="geometry"/>
                </mxCell>
                <mxCell id="134" value="6" style="ellipse;whiteSpace=wrap;html=1;aspect=fixed;" parent="356" vertex="1">
                    <mxGeometry x="500" y="200" width="40" height="40" as="geometry"/>
                </mxCell>
                <mxCell id="137" value="2" style="ellipse;whiteSpace=wrap;html=1;aspect=fixed;" parent="356" vertex="1">
                    <mxGeometry x="420" y="40" width="40" height="40" as="geometry"/>
                </mxCell>
                <mxCell id="138" value="1" style="ellipse;whiteSpace=wrap;html=1;aspect=fixed;" parent="356" vertex="1">
                    <mxGeometry x="380" y="120" width="40" height="40" as="geometry"/>
                </mxCell>
                <mxCell id="135" value="1" style="edgeStyle=none;html=1;exitX=0;exitY=1;exitDx=0;exitDy=0;entryX=0.5;entryY=0;entryDx=0;entryDy=0;strokeWidth=1;" parent="356" source="137" target="138" edge="1">
                    <mxGeometry relative="1" as="geometry"/>
                </mxCell>
                <mxCell id="139" value="1" style="edgeStyle=none;html=1;exitX=0;exitY=1;exitDx=0;exitDy=0;entryX=0.5;entryY=0;entryDx=0;entryDy=0;strokeWidth=1;" parent="356" source="140" target="132" edge="1">
                    <mxGeometry relative="1" as="geometry"/>
                </mxCell>
                <mxCell id="209" value="1" style="edgeStyle=none;html=1;exitX=1;exitY=1;exitDx=0;exitDy=0;entryX=0.5;entryY=0;entryDx=0;entryDy=0;strokeWidth=1;" parent="356" source="140" target="134" edge="1">
                    <mxGeometry relative="1" as="geometry"/>
                </mxCell>
                <mxCell id="140" value="4" style="ellipse;whiteSpace=wrap;html=1;aspect=fixed;" parent="356" vertex="1">
                    <mxGeometry x="460" y="120" width="40" height="40" as="geometry"/>
                </mxCell>
                <mxCell id="210" value="1" style="edgeStyle=none;html=1;exitX=1;exitY=1;exitDx=0;exitDy=0;entryX=0.5;entryY=0;entryDx=0;entryDy=0;strokeWidth=1;" parent="356" source="137" target="140" edge="1">
                    <mxGeometry relative="1" as="geometry"/>
                </mxCell>
                <mxCell id="357" value="Balancing 4" style="swimlane;whiteSpace=wrap;html=1;strokeWidth=1;" vertex="1" parent="1">
                    <mxGeometry x="20" y="1400" width="680" height="340" as="geometry"/>
                </mxCell>
                <mxCell id="212" value="6" style="ellipse;whiteSpace=wrap;html=1;aspect=fixed;" parent="357" vertex="1">
                    <mxGeometry x="100" y="120" width="40" height="40" as="geometry"/>
                </mxCell>
                <mxCell id="214" style="edgeStyle=none;html=1;exitX=1;exitY=1;exitDx=0;exitDy=0;entryX=0.5;entryY=0;entryDx=0;entryDy=0;" parent="357" source="215" target="212" edge="1">
                    <mxGeometry relative="1" as="geometry"/>
                </mxCell>
                <mxCell id="215" value="2" style="ellipse;whiteSpace=wrap;html=1;aspect=fixed;" parent="357" vertex="1">
                    <mxGeometry x="60" y="40" width="40" height="40" as="geometry"/>
                </mxCell>
                <mxCell id="216" value="1" style="ellipse;whiteSpace=wrap;html=1;aspect=fixed;" parent="357" vertex="1">
                    <mxGeometry x="20" y="120" width="40" height="40" as="geometry"/>
                </mxCell>
                <mxCell id="213" style="edgeStyle=none;html=1;exitX=0;exitY=1;exitDx=0;exitDy=0;entryX=0.5;entryY=0;entryDx=0;entryDy=0;strokeWidth=1;" parent="357" source="215" target="216" edge="1">
                    <mxGeometry relative="1" as="geometry"/>
                </mxCell>
                <mxCell id="217" value="3" style="ellipse;whiteSpace=wrap;html=1;aspect=fixed;" parent="357" vertex="1">
                    <mxGeometry x="60" y="200" width="40" height="40" as="geometry"/>
                </mxCell>
                <mxCell id="211" style="edgeStyle=none;html=1;exitX=0;exitY=1;exitDx=0;exitDy=0;entryX=0.5;entryY=0;entryDx=0;entryDy=0;strokeWidth=1;" parent="357" source="212" target="217" edge="1">
                    <mxGeometry relative="1" as="geometry"/>
                </mxCell>
                <mxCell id="237" value="6" style="ellipse;whiteSpace=wrap;html=1;aspect=fixed;" parent="357" vertex="1">
                    <mxGeometry x="260" y="120" width="40" height="40" as="geometry"/>
                </mxCell>
                <mxCell id="239" value="3" style="edgeStyle=none;html=1;exitX=1;exitY=1;exitDx=0;exitDy=0;entryX=0.5;entryY=0;entryDx=0;entryDy=0;" parent="357" source="240" target="237" edge="1">
                    <mxGeometry relative="1" as="geometry"/>
                </mxCell>
                <mxCell id="240" value="2" style="ellipse;whiteSpace=wrap;html=1;aspect=fixed;" parent="357" vertex="1">
                    <mxGeometry x="220" y="40" width="40" height="40" as="geometry"/>
                </mxCell>
                <mxCell id="241" value="1" style="ellipse;whiteSpace=wrap;html=1;aspect=fixed;" parent="357" vertex="1">
                    <mxGeometry x="180" y="120" width="40" height="40" as="geometry"/>
                </mxCell>
                <mxCell id="238" value="1" style="edgeStyle=none;html=1;exitX=0;exitY=1;exitDx=0;exitDy=0;entryX=0.5;entryY=0;entryDx=0;entryDy=0;strokeWidth=1;" parent="357" source="240" target="241" edge="1">
                    <mxGeometry relative="1" as="geometry"/>
                </mxCell>
                <mxCell id="242" value="3" style="ellipse;whiteSpace=wrap;html=1;aspect=fixed;" parent="357" vertex="1">
                    <mxGeometry x="220" y="200" width="40" height="40" as="geometry"/>
                </mxCell>
                <mxCell id="236" value="2" style="edgeStyle=none;html=1;exitX=0;exitY=1;exitDx=0;exitDy=0;entryX=0.5;entryY=0;entryDx=0;entryDy=0;strokeWidth=1;" parent="357" source="237" target="242" edge="1">
                    <mxGeometry relative="1" as="geometry"/>
                </mxCell>
                <mxCell id="243" value="4" style="ellipse;whiteSpace=wrap;html=1;aspect=fixed;" parent="357" vertex="1">
                    <mxGeometry x="260" y="280" width="40" height="40" as="geometry"/>
                </mxCell>
                <mxCell id="244" value="1" style="edgeStyle=none;html=1;exitX=1;exitY=1;exitDx=0;exitDy=0;entryX=0.5;entryY=0;entryDx=0;entryDy=0;strokeWidth=1;" parent="357" source="242" target="243" edge="1">
                    <mxGeometry relative="1" as="geometry"/>
                </mxCell>
                <mxCell id="246" value="6" style="ellipse;whiteSpace=wrap;html=1;aspect=fixed;" parent="357" vertex="1">
                    <mxGeometry x="420" y="120" width="40" height="40" as="geometry"/>
                </mxCell>
                <mxCell id="248" value="3" style="edgeStyle=none;html=1;exitX=1;exitY=1;exitDx=0;exitDy=0;entryX=0.5;entryY=0;entryDx=0;entryDy=0;" parent="357" source="249" target="246" edge="1">
                    <mxGeometry relative="1" as="geometry"/>
                </mxCell>
                <mxCell id="249" value="2" style="ellipse;whiteSpace=wrap;html=1;aspect=fixed;" parent="357" vertex="1">
                    <mxGeometry x="380" y="40" width="40" height="40" as="geometry"/>
                </mxCell>
                <mxCell id="250" value="1" style="ellipse;whiteSpace=wrap;html=1;aspect=fixed;" parent="357" vertex="1">
                    <mxGeometry x="340" y="120" width="40" height="40" as="geometry"/>
                </mxCell>
                <mxCell id="247" value="1" style="edgeStyle=none;html=1;exitX=0;exitY=1;exitDx=0;exitDy=0;entryX=0.5;entryY=0;entryDx=0;entryDy=0;strokeWidth=1;" parent="357" source="249" target="250" edge="1">
                    <mxGeometry relative="1" as="geometry"/>
                </mxCell>
                <mxCell id="252" value="3" style="ellipse;whiteSpace=wrap;html=1;aspect=fixed;" parent="357" vertex="1">
                    <mxGeometry x="340" y="280" width="40" height="40" as="geometry"/>
                </mxCell>
                <mxCell id="254" value="1" style="edgeStyle=none;html=1;exitX=0;exitY=1;exitDx=0;exitDy=0;entryX=0.5;entryY=0;entryDx=0;entryDy=0;strokeWidth=1;" parent="357" source="253" target="252" edge="1">
                    <mxGeometry relative="1" as="geometry"/>
                </mxCell>
                <mxCell id="253" value="4" style="ellipse;whiteSpace=wrap;html=1;aspect=fixed;" parent="357" vertex="1">
                    <mxGeometry x="380" y="200" width="40" height="40" as="geometry"/>
                </mxCell>
                <mxCell id="255" value="2" style="edgeStyle=none;html=1;exitX=0;exitY=1;exitDx=0;exitDy=0;entryX=0.5;entryY=0;entryDx=0;entryDy=0;strokeWidth=1;" parent="357" source="246" target="253" edge="1">
                    <mxGeometry relative="1" as="geometry"/>
                </mxCell>
                <mxCell id="257" value="6" style="ellipse;whiteSpace=wrap;html=1;aspect=fixed;" parent="357" vertex="1">
                    <mxGeometry x="620" y="200" width="40" height="40" as="geometry"/>
                </mxCell>
                <mxCell id="260" value="2" style="ellipse;whiteSpace=wrap;html=1;aspect=fixed;" parent="357" vertex="1">
                    <mxGeometry x="540" y="40" width="40" height="40" as="geometry"/>
                </mxCell>
                <mxCell id="261" value="1" style="ellipse;whiteSpace=wrap;html=1;aspect=fixed;" parent="357" vertex="1">
                    <mxGeometry x="500" y="120" width="40" height="40" as="geometry"/>
                </mxCell>
                <mxCell id="258" value="1" style="edgeStyle=none;html=1;exitX=0;exitY=1;exitDx=0;exitDy=0;entryX=0.5;entryY=0;entryDx=0;entryDy=0;strokeWidth=1;" parent="357" source="260" target="261" edge="1">
                    <mxGeometry relative="1" as="geometry"/>
                </mxCell>
                <mxCell id="262" value="3" style="ellipse;whiteSpace=wrap;html=1;aspect=fixed;" parent="357" vertex="1">
                    <mxGeometry x="540" y="200" width="40" height="40" as="geometry"/>
                </mxCell>
                <mxCell id="263" value="1" style="edgeStyle=none;html=1;exitX=0;exitY=1;exitDx=0;exitDy=0;entryX=0.5;entryY=0;entryDx=0;entryDy=0;strokeWidth=1;" parent="357" source="264" target="262" edge="1">
                    <mxGeometry relative="1" as="geometry"/>
                </mxCell>
                <mxCell id="265" value="1" style="edgeStyle=none;html=1;exitX=1;exitY=1;exitDx=0;exitDy=0;entryX=0.5;entryY=0;entryDx=0;entryDy=0;strokeWidth=1;" parent="357" source="264" target="257" edge="1">
                    <mxGeometry relative="1" as="geometry"/>
                </mxCell>
                <mxCell id="264" value="4" style="ellipse;whiteSpace=wrap;html=1;aspect=fixed;" parent="357" vertex="1">
                    <mxGeometry x="580" y="120" width="40" height="40" as="geometry"/>
                </mxCell>
                <mxCell id="266" value="2" style="edgeStyle=none;html=1;exitX=1;exitY=1;exitDx=0;exitDy=0;entryX=0.5;entryY=0;entryDx=0;entryDy=0;strokeWidth=1;" parent="357" source="260" target="264" edge="1">
                    <mxGeometry relative="1" as="geometry"/>
                </mxCell>
            </root>
        </mxGraphModel>
    </diagram>
</mxfile>